<svg width="20" height="20" viewBox="0 0 20 20" fill="none" xmlns="http://www.w3.org/2000/svg">
<path fill-rule="evenodd" clip-rule="evenodd" d="M17.5 19H2.5C1.11929 19 0 17.8487 0 16.4286V7C0 5.57984 1.11929 4.42857 2.5 4.42857H5.75C5.85409 4.42726 5.94127 4.34711 5.95417 4.24086L6.07417 3.25257C6.23052 1.96566 7.29411 0.999934 8.555 1H11.445C12.7049 1.00123 13.7671 1.96664 13.9233 3.25257L14.0433 4.24086C14.0564 4.34807 14.145 4.42854 14.25 4.42857H17.5C18.8807 4.42857 20 5.57984 20 7V16.4286C20 17.8487 18.8807 19 17.5 19ZM8.555 2.71429C8.13449 2.71398 7.77964 3.03596 7.7275 3.46514L7.64 4.18857C7.63285 4.24941 7.65137 4.31049 7.69087 4.35636C7.73038 4.40224 7.78709 4.42852 7.84667 4.42857H12.1533C12.2129 4.42852 12.2696 4.40224 12.3091 4.35636C12.3486 4.31049 12.3672 4.24941 12.36 4.18857L12.2725 3.46514C12.2204 3.03596 11.8655 2.71398 11.445 2.71429H8.555ZM4.375 9.14286C4.375 8.78782 4.65482 8.5 5 8.5H15C15.3452 8.5 15.625 8.78782 15.625 9.14286V9.57143C15.625 9.92647 15.3452 10.2143 15 10.2143H5C4.65482 10.2143 4.375 9.92647 4.375 9.57143V9.14286ZM5 13.2143C4.65482 13.2143 4.375 13.5021 4.375 13.8571V14.2857C4.375 14.6408 4.65482 14.9286 5 14.9286H15C15.3452 14.9286 15.625 14.6408 15.625 14.2857V13.8571C15.625 13.5021 15.3452 13.2143 15 13.2143H5Z" fill="#8D8D8C"/>
</svg>
