<svg width="20" height="20" viewBox="0 0 20 20" fill="none" xmlns="http://www.w3.org/2000/svg">
<path fill-rule="evenodd" clip-rule="evenodd" d="M0 10C0 4.47715 4.47715 0 10 0C15.5204 0.00597071 19.994 4.47963 20 10C20 15.5228 15.5228 20 10 20C4.47715 20 0 15.5228 0 10ZM2.29167 10C2.29167 14.2572 5.74281 17.7083 10 17.7083C14.2553 17.7037 17.7037 14.2553 17.7083 10C17.7083 5.74281 14.2572 2.29167 10 2.29167C5.74281 2.29167 2.29167 5.74281 2.29167 10Z" fill="black"/>
<path fill-rule="evenodd" clip-rule="evenodd" d="M3.54169 10C3.54169 6.43316 6.43318 3.54167 10 3.54167C13.5651 3.5458 16.4542 6.43487 16.4584 10C16.4584 13.5668 13.5669 16.4583 10 16.4583C6.43318 16.4583 3.54169 13.5668 3.54169 10ZM13.3334 11.25C13.5635 11.25 13.75 11.0635 13.75 10.8333V9.16667C13.75 8.93655 13.5635 8.75 13.3334 8.75H11.6667C11.4366 8.75 11.25 8.56345 11.25 8.33333V6.66667C11.25 6.43655 11.0635 6.25 10.8334 6.25H9.16669C8.93657 6.25 8.75002 6.43655 8.75002 6.66667V8.33333C8.75002 8.56345 8.56347 8.75 8.33335 8.75H6.66669C6.43657 8.75 6.25002 8.93655 6.25002 9.16667V10.8333C6.25002 11.0635 6.43657 11.25 6.66669 11.25H8.33335C8.56347 11.25 8.75002 11.4365 8.75002 11.6667V13.3333C8.75002 13.5635 8.93657 13.75 9.16669 13.75H10.8334C11.0635 13.75 11.25 13.5635 11.25 13.3333V11.6667C11.25 11.4365 11.4366 11.25 11.6667 11.25H13.3334Z" fill="#8D8D8C"/>
</svg>
