<svg width="20" height="20" viewBox="0 0 20 20" fill="none" xmlns="http://www.w3.org/2000/svg">
<path fill-rule="evenodd" clip-rule="evenodd" d="M19.7559 9.41084L10.5892 0.244172C10.2638 -0.0811465 9.73628 -0.0811465 9.41086 0.244172L0.244196 9.41084C0.00593956 9.64917 -0.0653221 10.0075 0.0636312 10.3189C0.192584 10.6302 0.496366 10.8333 0.833363 10.8333H1.87503C1.99009 10.8333 2.08336 10.9266 2.08336 11.0417V19.1667C2.08336 19.6269 2.45646 20 2.9167 20H7.70836C7.82342 20 7.9167 19.9067 7.9167 19.7917V15.8333C7.9167 14.6827 8.84944 13.75 10 13.75C11.1506 13.75 12.0834 14.6827 12.0834 15.8333V19.7917C12.0834 19.9067 12.1766 20 12.2917 20H17.0834C17.5436 20 17.9167 19.6269 17.9167 19.1667V11.0417C17.9167 10.9266 18.01 10.8333 18.125 10.8333H19.1667C19.5037 10.8333 19.8075 10.6302 19.9364 10.3189C20.0654 10.0075 19.9941 9.64917 19.7559 9.41084Z" fill="#8D8D8C"/>
</svg>
