<svg width="20" height="20" viewBox="0 0 20 20" fill="none" xmlns="http://www.w3.org/2000/svg">
<path fill-rule="evenodd" clip-rule="evenodd" d="M9.95136 6.57833C10.0799 6.50382 10.159 6.36546 10.1585 6.21583L10.1519 5.41667C10.1519 5.18655 9.96716 5 9.73923 5H7.85976C7.50889 4.99999 7.19636 5.22394 7.08057 5.55833L2.84208 17.7792C2.79795 17.9066 2.81772 18.0477 2.89511 18.1578C2.97251 18.2679 3.09795 18.3333 3.23167 18.3333H13.7904C14.2462 18.3333 14.6158 18.7064 14.6158 19.1667C14.6158 19.6269 14.2462 20 13.7904 20H2.65141C2.11657 20.0002 1.61479 19.7388 1.30505 19.2986C0.9953 18.8584 0.915973 18.294 1.0922 17.7842L6.4871 2.22417C6.63799 1.7897 7.10917 1.56099 7.5395 1.71333C7.96984 1.86567 8.19637 2.34137 8.04548 2.77583C7.99985 2.9041 8.01923 3.04678 8.09738 3.1579C8.17553 3.26903 8.30257 3.33454 8.43755 3.33333H9.74583C9.97377 3.33333 10.1585 3.14679 10.1585 2.91667V1.25C10.1585 0.559644 10.7129 0 11.3967 0H13.8729C14.5567 0 15.111 0.559644 15.111 1.25V2.91667C15.111 3.14679 15.2958 3.33333 15.5237 3.33333H16.3491C16.805 3.33333 17.1746 3.70643 17.1746 4.16667C17.1746 4.6269 16.805 5 16.3491 5H15.5237C15.2958 5 15.111 5.18655 15.111 5.41667V6.21583C15.1108 6.36563 15.1902 6.50403 15.319 6.57833C16.9807 7.53453 18.0048 9.31899 18 11.25C18 14.2415 15.5979 16.6667 12.6348 16.6667C9.67167 16.6667 7.26959 14.2415 7.26959 11.25C7.26512 9.31886 8.28946 7.53445 9.95136 6.57833ZM9.95219 11.6667C9.95219 12.0118 10.2293 12.2917 10.5712 12.2917C10.9131 12.2917 11.1903 12.0118 11.1903 11.6667C11.1903 11.3215 10.9131 11.0417 10.5712 11.0417C10.2293 11.0417 9.95219 11.3215 9.95219 11.6667ZM12.8411 14.375C12.4992 14.375 12.2221 14.0952 12.2221 13.75C12.2221 13.4048 12.4992 13.125 12.8411 13.125C13.183 13.125 13.4602 13.4048 13.4602 13.75C13.4602 13.9165 13.3944 14.0761 13.2774 14.1934C13.1604 14.3108 13.0019 14.3761 12.837 14.375H12.8411ZM13.6665 11.8275C13.6665 12.4028 14.1285 12.8692 14.6983 12.8692C15.2678 12.8682 15.7292 12.4024 15.7301 11.8275C15.7301 11.2522 15.2681 10.7858 14.6983 10.7858C14.1285 10.7858 13.6665 11.2522 13.6665 11.8275ZM11.8094 2.08333C11.8094 1.85321 11.9941 1.66667 12.2221 1.66667H13.0475C13.2754 1.66667 13.4602 1.85321 13.4602 2.08333V2.91667C13.4602 3.14679 13.2754 3.33333 13.0475 3.33333H12.2221C11.9941 3.33333 11.8094 3.14679 11.8094 2.91667V2.08333ZM13.4602 5.41667C13.4602 5.18655 13.2754 5 13.0475 5H12.2221C11.9941 5 11.8094 5.18655 11.8094 5.41667V7C11.8088 7.34367 11.5994 7.65177 11.2819 7.77583C10.3803 8.12779 9.65013 8.82074 9.24646 9.7075C9.21766 9.7721 9.22321 9.84703 9.26121 9.90659C9.29921 9.96615 9.36448 10.0022 9.43465 10.0025H15.8316C15.9018 10.0024 15.9671 9.96628 16.005 9.90662C16.0429 9.84696 16.0482 9.77195 16.019 9.7075C15.6158 8.8209 14.8858 8.12815 13.9843 7.77667C13.6679 7.65142 13.4599 7.34315 13.4602 7V5.41667Z" fill="#8D8D8C"/>
</svg>
