<svg width="20" height="20" viewBox="0 0 20 20" fill="none" xmlns="http://www.w3.org/2000/svg">
<path fill-rule="evenodd" clip-rule="evenodd" d="M0 10C0 4.47715 4.47715 0 10 0C15.5204 0.00597071 19.994 4.47963 20 10C20 15.5228 15.5228 20 10 20C4.47715 20 0 15.5228 0 10ZM11.0942 3.08583C10.9418 3.15231 10.8436 3.30296 10.8442 3.46917L10.84 5.62833C10.8397 5.76169 10.9032 5.88715 11.0108 5.96583L13.9275 8.0875C14.0568 8.18196 14.2288 8.19395 14.37 8.11833L15.9817 7.25417C16.1063 7.18731 16.1885 7.0618 16.2 6.92083L16.4325 4.29417C16.4429 4.17472 16.4013 4.0566 16.3183 3.97C15.583 3.1978 14.7133 2.56584 13.7517 2.105C13.6436 2.05326 13.5185 2.05053 13.4083 2.0975L11.0942 3.08583ZM3.69917 3.94917C4.43294 3.18332 5.29945 2.55681 6.25667 2.1C6.36471 2.04826 6.4898 2.04553 6.6 2.0925L8.92417 3.08333C9.0765 3.14981 9.17475 3.30046 9.17417 3.46667V5.62917C9.17299 5.7612 9.10931 5.88487 9.0025 5.9625L6.16917 8.0275C6.04433 8.11899 5.87907 8.13375 5.74 8.06583L4.04917 7.24C3.91787 7.17602 3.82966 7.04797 3.81667 6.9025L3.58333 4.27417C3.57317 4.15419 3.61541 4.03567 3.69917 3.94917ZM5.53417 14.81L6.47333 13.7617C6.57054 13.6518 6.60282 13.4989 6.55833 13.3592L5.49417 10.0708C5.46077 9.96854 5.38911 9.88314 5.29417 9.8325L3.54417 8.89333C3.37275 8.80111 3.16032 8.83986 3.0325 8.98667L1.42833 10.8333C1.35232 10.9231 1.31781 11.0409 1.33333 11.1575C1.47175 12.2024 1.79932 13.2133 2.3 14.1408C2.35708 14.2461 2.45665 14.3216 2.57333 14.3483L5.13 14.9375C5.27789 14.9718 5.43273 14.923 5.53417 14.81ZM13.14 16.2617L11.8575 18.4092C11.7959 18.5126 11.6926 18.5843 11.5742 18.6058C10.5436 18.7933 9.48775 18.7947 8.45667 18.61C8.33794 18.5887 8.23429 18.5169 8.1725 18.4133L6.885 16.265C6.7911 16.1082 6.81036 15.9085 6.9325 15.7725L7.87083 14.725C7.95004 14.6368 8.06309 14.5864 8.18167 14.5867H11.8425C11.9611 14.5864 12.0741 14.6368 12.1533 14.725L13.0908 15.7725C13.2126 15.9083 13.2318 16.1075 13.1383 16.2642L13.14 16.2617ZM17.4283 14.3458C17.545 14.3191 17.6446 14.2436 17.7017 14.1383L17.7 14.1408C18.2014 13.2148 18.5301 12.2053 18.67 11.1617C18.6858 11.0432 18.65 10.9236 18.5717 10.8333L16.97 8.98C16.8423 8.83361 16.6304 8.79489 16.4592 8.88667L14.7092 9.82583C14.6142 9.87647 14.5426 9.96188 14.5092 10.0642L13.445 13.3525C13.3985 13.4932 13.4302 13.6481 13.5283 13.7592L14.4675 14.8075C14.5689 14.9205 14.7238 14.9693 14.8717 14.935L17.4283 14.3458Z" fill="#8D8D8C"/>
</svg>
