<svg width="20" height="20" viewBox="0 0 20 20" fill="none" xmlns="http://www.w3.org/2000/svg">
<path fill-rule="evenodd" clip-rule="evenodd" d="M18.125 1.45834H1.875C0.840037 1.45971 0.0013772 2.29837 0 3.33334V12.5C0.0013772 13.535 0.840037 14.3736 1.875 14.375H8.54167C8.77179 14.375 8.95833 14.5616 8.95833 14.7917V16.0417C8.95833 16.2718 8.77179 16.4583 8.54167 16.4583H6.04167C5.46637 16.4583 5 16.9247 5 17.5C5 18.0753 5.46637 18.5417 6.04167 18.5417H13.9583C14.5336 18.5417 15 18.0753 15 17.5C15 16.9247 14.5336 16.4583 13.9583 16.4583H11.4583C11.2282 16.4583 11.0417 16.2718 11.0417 16.0417V14.7917C11.0417 14.5616 11.2282 14.375 11.4583 14.375H18.125C19.16 14.3736 19.9986 13.535 20 12.5V3.33334C19.9986 2.29837 19.16 1.45971 18.125 1.45834ZM17.9167 11.875C17.9167 12.1051 17.7301 12.2917 17.5 12.2917H2.5C2.26988 12.2917 2.08333 12.1051 2.08333 11.875V3.95834C2.08333 3.72822 2.26988 3.54167 2.5 3.54167H17.5C17.7301 3.54167 17.9167 3.72822 17.9167 3.95834V11.875Z" fill="#8D8D8C"/>
</svg>
